<svg width="40" height="40" viewBox="0 0 40 40" fill="none" xmlns="http://www.w3.org/2000/svg">
<g id="Group 49">
<path id="Vector" d="M0 5C0 2.23858 2.23858 0 5 0H35C37.7614 0 40 2.23858 40 5V35C40 37.7614 37.7614 40 35 40H5C2.23858 40 0 37.7614 0 35V5Z" fill="#61D7A5" fill-opacity="0.2"/>
<g id="FolderAdd_Ico">
<path id="Vector_2" d="M19.2368 26.3946H12.0526C11.5082 26.3946 10.9861 26.1783 10.6012 25.7934C10.2163 25.4084 10 24.8864 10 24.342V13.0526C10 12.5082 10.2163 11.9861 10.6012 11.6012C10.9861 11.2163 11.5082 11 12.0526 11H16.1578L19.2368 14.0789H26.4209C26.9653 14.0789 27.4874 14.2952 27.8723 14.6801C28.2572 15.0651 28.4735 15.5871 28.4735 16.1315V19.7236" stroke="#FCFEFF" stroke-width="1.5" stroke-linecap="round" stroke-linejoin="round"/>
<path id="Vector_3" d="M23.3418 26.3947H29.4996" stroke="#FCFEFF" stroke-width="1.5" stroke-linecap="round" stroke-linejoin="round"/>
<path id="Vector_4" d="M26.4209 23.3157V29.4735" stroke="#FCFEFF" stroke-width="1.5" stroke-linecap="round" stroke-linejoin="round"/>
</g>
</g>
</svg>
