<svg width="35" height="35" viewBox="0 0 35 35" fill="none" xmlns="http://www.w3.org/2000/svg">
<g id="Group 20">
<circle id="Ellipse 7" opacity="0.25" cx="17.5" cy="17.5" r="17.5" fill="#D1E1EF"/>
<g id="Notif_Ico">
<path id="Vector" d="M15.625 11.7778C15.625 11.3063 15.8225 10.8541 16.1742 10.5207C16.5258 10.1873 17.0027 10 17.5 10C17.9973 10 18.4742 10.1873 18.8258 10.5207C19.1775 10.8541 19.375 11.3063 19.375 11.7778C20.4516 12.2605 21.3694 13.0118 22.03 13.9514C22.6907 14.8909 23.0692 15.9832 23.125 17.1111V19.7778C23.1956 20.3304 23.402 20.8596 23.7276 21.3228C24.0533 21.786 24.4891 22.1702 25 22.4444H10C10.5109 22.1702 10.9467 21.786 11.2724 21.3228C11.598 20.8596 11.8044 20.3304 11.875 19.7778V17.1111C11.9308 15.9832 12.3093 14.8909 12.97 13.9514C13.6306 13.0118 14.5484 12.2605 15.625 11.7778Z" stroke="#779BBB" stroke-width="1.5" stroke-linecap="round" stroke-linejoin="round"/>
<path id="Vector_2" d="M14.6875 22.4444V23.3333C14.6875 24.0406 14.9838 24.7189 15.5113 25.219C16.0387 25.719 16.7541 26 17.5 26C18.2459 26 18.9613 25.719 19.4887 25.219C20.0162 24.7189 20.3125 24.0406 20.3125 23.3333V22.4444" stroke="#779BBB" stroke-width="1.5" stroke-linecap="round" stroke-linejoin="round"/>
</g>
</g>
</svg>
