<svg width="22" height="22" viewBox="0 0 22 22" fill="none" xmlns="http://www.w3.org/2000/svg">
<g id="Calendar_Ico">
<path id="Vector" d="M10.2578 19.9473H3.10524C2.5469 19.9473 2.01142 19.7255 1.61661 19.3307C1.2218 18.9359 1 18.4004 1 17.8421V5.21059C1 4.65224 1.2218 4.11677 1.61661 3.72196C2.01142 3.32715 2.5469 3.10535 3.10524 3.10535H15.7367C16.295 3.10535 16.8305 3.32715 17.2253 3.72196C17.6201 4.11677 17.8419 4.65224 17.8419 5.21059V9.42108" stroke="#B3C6D8" stroke-width="1.5" stroke-linecap="round" stroke-linejoin="round"/>
<path id="Vector_2" d="M12.5791 16.7893C12.5791 17.906 13.0227 18.977 13.8123 19.7666C14.6019 20.5562 15.6729 20.9998 16.7896 20.9998C17.9063 20.9998 18.9772 20.5562 19.7669 19.7666C20.5565 18.977 21.0001 17.906 21.0001 16.7893C21.0001 15.6727 20.5565 14.6017 19.7669 13.8121C18.9772 13.0225 17.9063 12.5789 16.7896 12.5789C15.6729 12.5789 14.6019 13.0225 13.8123 13.8121C13.0227 14.6017 12.5791 15.6727 12.5791 16.7893Z" stroke="#B3C6D8" stroke-width="1.5" stroke-linecap="round" stroke-linejoin="round"/>
<path id="Vector_3" d="M13.6309 1.00012V5.21061" stroke="#B3C6D8" stroke-width="1.5" stroke-linecap="round" stroke-linejoin="round"/>
<path id="Vector_4" d="M5.20996 1.00012V5.21061" stroke="#B3C6D8" stroke-width="1.5" stroke-linecap="round" stroke-linejoin="round"/>
<path id="Vector_5" d="M1 9.42114H17.8419" stroke="#B3C6D8" stroke-width="1.5" stroke-linecap="round" stroke-linejoin="round"/>
<path id="Vector_6" d="M16.79 15.2063V16.7894L17.8427 17.8421" stroke="#B3C6D8" stroke-width="1.5" stroke-linecap="round" stroke-linejoin="round"/>
</g>
</svg>
