<svg width="15" height="13" viewBox="0 0 15 13" fill="none" xmlns="http://www.w3.org/2000/svg">
<path d="M13.4177 2.18634H11.1138L10.565 0.64819C10.527 0.542939 10.4576 0.45196 10.366 0.387683C10.2744 0.323406 10.1653 0.288964 10.0534 0.289063H4.8562C4.62751 0.289063 4.42253 0.433052 4.3463 0.64819L3.79575 2.18634H1.49192C0.74317 2.18634 0.136719 2.79279 0.136719 3.54154V11.2662C0.136719 12.0149 0.74317 12.6214 1.49192 12.6214H13.4177C14.1664 12.6214 14.7729 12.0149 14.7729 11.2662V3.54154C14.7729 2.79279 14.1664 2.18634 13.4177 2.18634ZM7.45479 9.91096C5.95729 9.91096 4.74439 8.69806 4.74439 7.20057C4.74439 5.70307 5.95729 4.49017 7.45479 4.49017C8.95228 4.49017 10.1652 5.70307 10.1652 7.20057C10.1652 8.69806 8.95228 9.91096 7.45479 9.91096ZM5.82855 7.20057C5.82855 7.63187 5.99989 8.04551 6.30486 8.35049C6.60984 8.65547 7.02348 8.8268 7.45479 8.8268C7.88609 8.8268 8.29973 8.65547 8.60471 8.35049C8.90969 8.04551 9.08103 7.63187 9.08103 7.20057C9.08103 6.76926 8.90969 6.35562 8.60471 6.05064C8.29973 5.74567 7.88609 5.57433 7.45479 5.57433C7.02348 5.57433 6.60984 5.74567 6.30486 6.05064C5.99989 6.35562 5.82855 6.76926 5.82855 7.20057Z" fill="#D31019"/>
</svg>
