<svg width="19" height="16" viewBox="0 0 19 16" fill="none" xmlns="http://www.w3.org/2000/svg">
<path d="M2.33434 6.54652C2.05112 6.54652 1.77426 6.6305 1.53877 6.78786C1.30328 6.94521 1.11973 7.16885 1.01135 7.43052C0.902964 7.69218 0.874606 7.98011 0.92986 8.25789C0.985114 8.53567 1.1215 8.79083 1.32177 8.9911C1.52204 9.19137 1.77719 9.32775 2.05498 9.383C2.33276 9.43826 2.62068 9.4099 2.88235 9.30152C3.14401 9.19313 3.36766 9.00959 3.52501 8.7741C3.68236 8.5386 3.76635 8.26174 3.76635 7.97852C3.76649 7.79042 3.72956 7.60415 3.65764 7.43034C3.58573 7.25654 3.48026 7.09861 3.34725 6.96561C3.21425 6.83261 3.05633 6.72713 2.88252 6.65522C2.70872 6.58331 2.52244 6.54637 2.33434 6.54652ZM2.33434 0.817385C2.05117 0.817609 1.77442 0.901785 1.53908 1.05927C1.30374 1.21676 1.12037 1.44048 1.01216 1.70217C0.903947 1.96385 0.87575 2.25174 0.931132 2.52945C0.986514 2.80715 1.12299 3.06221 1.3233 3.26236C1.52362 3.46252 1.77878 3.59879 2.05653 3.65395C2.33428 3.70911 2.62215 3.68069 2.88374 3.57227C3.14534 3.46385 3.36892 3.28031 3.52622 3.04484C3.68352 2.80938 3.76748 2.53256 3.76748 2.24938C3.76763 2.06119 3.73065 1.87482 3.65867 1.70094C3.58669 1.52706 3.48111 1.36909 3.34799 1.23607C3.21486 1.10306 3.05681 0.997605 2.88287 0.92576C2.70894 0.853914 2.52253 0.817086 2.33434 0.817385ZM2.33434 12.2768C2.05117 12.277 1.77442 12.3612 1.53908 12.5187C1.30374 12.6762 1.12037 12.8999 1.01216 13.1616C0.903947 13.4233 0.87575 13.7111 0.931132 13.9889C0.986514 14.2666 1.12299 14.5216 1.3233 14.7218C1.52362 14.9219 1.77878 15.0582 2.05653 15.1134C2.33428 15.1685 2.62215 15.1401 2.88374 15.0317C3.14534 14.9233 3.36892 14.7397 3.52622 14.5042C3.68352 14.2688 3.76748 13.992 3.76748 13.7088C3.76628 13.3292 3.61487 12.9655 3.34633 12.6971C3.07779 12.4288 2.71396 12.2777 2.33434 12.2768ZM5.19948 14.6646H18.5694V12.7541H5.19948V14.6646ZM5.19948 8.93545H18.5694V7.02499H5.19948V8.93545ZM5.19948 1.29585V3.20519H18.5694V1.29472L5.19948 1.29585Z" fill="#CCD5E2"/>
</svg>
