<svg width="18" height="16" viewBox="0 0 18 16" fill="none" xmlns="http://www.w3.org/2000/svg">
<g id="Comment_Ico">
<path id="Vector" d="M5.65381 5.18301H12.3466" stroke="#0F7174" stroke-linecap="round" stroke-linejoin="round"/>
<path id="Vector_2" d="M5.65381 8.52942H10.6734" stroke="#0F7174" stroke-linecap="round" stroke-linejoin="round"/>
<path id="Vector_3" d="M14.0197 1C14.6854 1 15.3237 1.26442 15.7944 1.7351C16.2651 2.20578 16.5295 2.84416 16.5295 3.5098V10.2026C16.5295 10.8682 16.2651 11.5066 15.7944 11.9773C15.3237 12.448 14.6854 12.7124 14.0197 12.7124H9.83671L5.65371 15.2222V12.7124H3.9805C3.31486 12.7124 2.67649 12.448 2.20581 11.9773C1.73513 11.5066 1.4707 10.8682 1.4707 10.2026V3.5098C1.4707 2.84416 1.73513 2.20578 2.20581 1.7351C2.67649 1.26442 3.31486 1 3.9805 1H14.0197Z" stroke="#0F7174" stroke-linecap="round" stroke-linejoin="round"/>
</g>
</svg>
