<svg width="35" height="35" viewBox="0 0 35 35" fill="none" xmlns="http://www.w3.org/2000/svg">
<circle cx="17.2632" cy="17.2632" r="17.2632" fill="#FF9C00"/>
<path d="M16.9057 19.6251C17.6019 19.6251 18.2695 19.3485 18.7618 18.8562C19.2541 18.3639 19.5307 17.6963 19.5307 17.0001C19.5307 16.9232 19.5272 16.847 19.5206 16.7718L16.6774 19.615C16.7526 19.6216 16.8286 19.6251 16.9057 19.6251ZM25.5944 8.88038L24.5932 7.88007C24.558 7.84493 24.5103 7.8252 24.4606 7.8252C24.4109 7.8252 24.3633 7.84493 24.3281 7.88007L21.7659 10.443C20.3525 9.72062 18.7636 9.35945 16.9994 9.35945C12.4947 9.35945 9.13378 11.7055 6.91659 16.3977C6.82747 16.5864 6.78125 16.7925 6.78125 17.0012C6.78125 17.2099 6.82747 17.4161 6.91659 17.6048C7.80253 19.4709 8.86933 20.9666 10.117 22.0919L7.63753 24.5704C7.60239 24.6056 7.58265 24.6532 7.58265 24.7029C7.58265 24.7526 7.60239 24.8003 7.63753 24.8355L8.63808 25.836C8.67324 25.8712 8.72091 25.8909 8.77062 25.8909C8.82032 25.8909 8.868 25.8712 8.90315 25.836L25.5944 9.1457C25.6119 9.12828 25.6257 9.1076 25.6351 9.08484C25.6446 9.06208 25.6494 9.03768 25.6494 9.01304C25.6494 8.9884 25.6446 8.964 25.6351 8.94124C25.6257 8.91848 25.6119 8.8978 25.5944 8.88038ZM12.7807 17.0001C12.7806 16.2876 12.9651 15.5872 13.3161 14.9672C13.6672 14.3472 14.1728 13.8287 14.7838 13.4622C15.3948 13.0958 16.0904 12.8938 16.8026 12.876C17.5149 12.8582 18.2196 13.0252 18.8482 13.3607L17.7086 14.5002C17.2491 14.3531 16.7579 14.3354 16.2889 14.449C15.8199 14.5627 15.3913 14.8033 15.0501 15.1445C14.7089 15.4857 14.4682 15.9143 14.3546 16.3833C14.2409 16.8523 14.2587 17.3435 14.4058 17.803L13.2663 18.9426C12.9465 18.3451 12.7797 17.6777 12.7807 17.0001Z" fill="white"/>
<path d="M27.0811 16.3949C26.2561 14.6574 25.2741 13.2406 24.1352 12.1445L20.757 15.5231C21.0417 16.2675 21.1048 17.0784 20.9387 17.8579C20.7725 18.6374 20.3842 19.3521 19.8206 19.9157C19.2571 20.4793 18.5423 20.8676 17.7628 21.0338C16.9833 21.1999 16.1724 21.1368 15.428 20.852L12.5625 23.7175C13.8919 24.3327 15.3705 24.6403 16.9983 24.6403C21.503 24.6403 24.8639 22.2942 27.0811 17.602C27.1702 17.4133 27.2165 17.2071 27.2165 16.9984C27.2165 16.7897 27.1702 16.5836 27.0811 16.3949Z" fill="white"/>
</svg>
