<svg width="17" height="18" viewBox="0 0 17 18" fill="none" xmlns="http://www.w3.org/2000/svg">
<path d="M11.5273 3H16.0273C16.2263 3 16.417 3.07902 16.5577 3.21967C16.6983 3.36032 16.7773 3.55109 16.7773 3.75C16.7773 3.94891 16.6983 4.13968 16.5577 4.28033C16.417 4.42098 16.2263 4.5 16.0273 4.5H15.1978L14.0698 14.664C13.9679 15.5813 13.5314 16.4288 12.8436 17.0443C12.1559 17.6598 11.2653 18.0001 10.3423 18H6.71234C5.78939 18.0001 4.89882 17.6598 4.21108 17.0443C3.52334 16.4288 3.08674 15.5813 2.98484 14.664L1.85534 4.5H1.02734C0.828431 4.5 0.637666 4.42098 0.497014 4.28033C0.356362 4.13968 0.277344 3.94891 0.277344 3.75C0.277344 3.55109 0.356362 3.36032 0.497014 3.21967C0.637666 3.07902 0.828431 3 1.02734 3H5.52734C5.52734 2.20435 5.84341 1.44129 6.40602 0.87868C6.96863 0.31607 7.73169 0 8.52734 0C9.32299 0 10.0861 0.31607 10.6487 0.87868C11.2113 1.44129 11.5273 2.20435 11.5273 3ZM8.52734 1.5C8.12952 1.5 7.74799 1.65804 7.46668 1.93934C7.18538 2.22064 7.02734 2.60218 7.02734 3H10.0273C10.0273 2.60218 9.86931 2.22064 9.588 1.93934C9.3067 1.65804 8.92517 1.5 8.52734 1.5ZM6.27734 7.5V13.5C6.27734 13.6989 6.35636 13.8897 6.49701 14.0303C6.63767 14.171 6.82843 14.25 7.02734 14.25C7.22626 14.25 7.41702 14.171 7.55767 14.0303C7.69833 13.8897 7.77734 13.6989 7.77734 13.5V7.5C7.77734 7.30109 7.69833 7.11032 7.55767 6.96967C7.41702 6.82902 7.22626 6.75 7.02734 6.75C6.82843 6.75 6.63767 6.82902 6.49701 6.96967C6.35636 7.11032 6.27734 7.30109 6.27734 7.5ZM10.0273 6.75C9.82843 6.75 9.63767 6.82902 9.49701 6.96967C9.35636 7.11032 9.27734 7.30109 9.27734 7.5V13.5C9.27734 13.6989 9.35636 13.8897 9.49701 14.0303C9.63767 14.171 9.82843 14.25 10.0273 14.25C10.2263 14.25 10.417 14.171 10.5577 14.0303C10.6983 13.8897 10.7773 13.6989 10.7773 13.5V7.5C10.7773 7.30109 10.6983 7.11032 10.5577 6.96967C10.417 6.82902 10.2263 6.75 10.0273 6.75Z" fill="white"/>
</svg>
