<svg width="36" height="35" viewBox="0 0 36 35" fill="none" xmlns="http://www.w3.org/2000/svg">
<circle cx="17.7905" cy="17.2632" r="17.2632" fill="#D31019"/>
<path d="M20.5273 11H25.0273C25.2263 11 25.417 11.079 25.5577 11.2197C25.6983 11.3603 25.7773 11.5511 25.7773 11.75C25.7773 11.9489 25.6983 12.1397 25.5577 12.2803C25.417 12.421 25.2263 12.5 25.0273 12.5H24.1978L23.0698 22.664C22.9679 23.5813 22.5314 24.4288 21.8436 25.0443C21.1559 25.6598 20.2653 26.0001 19.3423 26H15.7123C14.7894 26.0001 13.8988 25.6598 13.2111 25.0443C12.5233 24.4288 12.0867 23.5813 11.9848 22.664L10.8553 12.5H10.0273C9.82843 12.5 9.63767 12.421 9.49701 12.2803C9.35636 12.1397 9.27734 11.9489 9.27734 11.75C9.27734 11.5511 9.35636 11.3603 9.49701 11.2197C9.63767 11.079 9.82843 11 10.0273 11H14.5273C14.5273 10.2044 14.8434 9.44129 15.406 8.87868C15.9686 8.31607 16.7317 8 17.5273 8C18.323 8 19.0861 8.31607 19.6487 8.87868C20.2113 9.44129 20.5273 10.2044 20.5273 11ZM17.5273 9.5C17.1295 9.5 16.748 9.65804 16.4667 9.93934C16.1854 10.2206 16.0273 10.6022 16.0273 11H19.0273C19.0273 10.6022 18.8693 10.2206 18.588 9.93934C18.3067 9.65804 17.9252 9.5 17.5273 9.5ZM15.2773 15.5V21.5C15.2773 21.6989 15.3564 21.8897 15.497 22.0303C15.6377 22.171 15.8284 22.25 16.0273 22.25C16.2263 22.25 16.417 22.171 16.5577 22.0303C16.6983 21.8897 16.7773 21.6989 16.7773 21.5V15.5C16.7773 15.3011 16.6983 15.1103 16.5577 14.9697C16.417 14.829 16.2263 14.75 16.0273 14.75C15.8284 14.75 15.6377 14.829 15.497 14.9697C15.3564 15.1103 15.2773 15.3011 15.2773 15.5ZM19.0273 14.75C18.8284 14.75 18.6377 14.829 18.497 14.9697C18.3564 15.1103 18.2773 15.3011 18.2773 15.5V21.5C18.2773 21.6989 18.3564 21.8897 18.497 22.0303C18.6377 22.171 18.8284 22.25 19.0273 22.25C19.2263 22.25 19.417 22.171 19.5577 22.0303C19.6983 21.8897 19.7773 21.6989 19.7773 21.5V15.5C19.7773 15.3011 19.6983 15.1103 19.5577 14.9697C19.417 14.829 19.2263 14.75 19.0273 14.75Z" fill="white"/>
</svg>
