<svg width="33" height="33" viewBox="0 0 33 33" fill="none" xmlns="http://www.w3.org/2000/svg">
<g id="Group 14">
<circle id="Ellipse 6" opacity="0.25" cx="16.5" cy="16.5" r="16.5" fill="#FCFEFF"/>
<g id="Client_Ico">
<path id="Vector" d="M8 14.0212C8 13.5307 8.19488 13.0602 8.54176 12.7133C8.88864 12.3664 9.35911 12.1716 9.84967 12.1716H22.7974C23.2879 12.1716 23.7584 12.3664 24.1053 12.7133C24.4522 13.0602 24.647 13.5307 24.647 14.0212V22.3448C24.647 22.8353 24.4522 23.3058 24.1053 23.6527C23.7584 23.9996 23.2879 24.1944 22.7974 24.1944H9.84967C9.35911 24.1944 8.88864 23.9996 8.54176 23.6527C8.19488 23.3058 8 22.8353 8 22.3448V14.0212Z" stroke="#FCFEFF" stroke-width="1.5" stroke-linecap="round" stroke-linejoin="round"/>
<path id="Vector_2" d="M12.624 12.1716V10.3219C12.624 9.83134 12.8189 9.36087 13.1658 9.01399C13.5127 8.6671 13.9831 8.47223 14.4737 8.47223H18.173C18.6636 8.47223 19.1341 8.6671 19.481 9.01399C19.8278 9.36087 20.0227 9.83134 20.0227 10.3219V12.1716" stroke="#FCFEFF" stroke-width="1.5" stroke-linecap="round" stroke-linejoin="round"/>
<path id="Vector_3" d="M16.3237 16.7958V16.8049" stroke="#FCFEFF" stroke-width="1.5" stroke-linecap="round" stroke-linejoin="round"/>
<path id="Vector_4" d="M8 17.7206C10.5818 19.0215 13.4325 19.6992 16.3235 19.6992C19.2145 19.6992 22.0653 19.0215 24.647 17.7206" stroke="#FCFEFF" stroke-linecap="round" stroke-linejoin="round"/>
</g>
</g>
</svg>
