<svg width="10" height="24" viewBox="0 0 10 24" fill="none" xmlns="http://www.w3.org/2000/svg">
<path d="M2.70928 15.3152L3.91403 0.736552L9.30126 1.48925L6.46402 15.8399L2.70928 15.3152ZM3.40868 23.8894C2.55978 23.7708 1.89124 23.3937 1.40304 22.7583C0.914834 22.1229 0.725433 21.4137 0.834831 20.6308C0.949988 19.8066 1.32796 19.1661 1.96874 18.7095C2.6124 18.2322 3.35868 18.0529 4.20758 18.1715C5.07824 18.2931 5.74679 18.6701 6.21323 19.3025C6.70431 19.9173 6.89227 20.6368 6.77711 21.461C6.66771 22.244 6.29118 22.8741 5.64752 23.3514C5.02562 23.8317 4.27935 24.011 3.40868 23.8894Z" fill="#FFC700"/>
</svg>
