<svg width="22" height="16" viewBox="0 0 22 16" fill="none" xmlns="http://www.w3.org/2000/svg">
<path d="M8.28066 8C8.28066 8.69619 8.55722 9.36387 9.04951 9.85616C9.54179 10.3484 10.2095 10.625 10.9057 10.625C11.6019 10.625 12.2695 10.3484 12.7618 9.85616C13.2541 9.36387 13.5307 8.69619 13.5307 8C13.5307 7.30381 13.2541 6.63613 12.7618 6.14384C12.2695 5.65156 11.6019 5.375 10.9057 5.375C10.2095 5.375 9.54179 5.65156 9.04951 6.14384C8.55722 6.63613 8.28066 7.30381 8.28066 8ZM21.0822 7.39531C18.8604 2.71484 15.5018 0.359375 10.9994 0.359375C6.49472 0.359375 3.13847 2.71484 0.916591 7.39766C0.82747 7.58637 0.78125 7.79247 0.78125 8.00117C0.78125 8.20987 0.82747 8.41598 0.916591 8.60469C3.13847 13.2852 6.49706 15.6406 10.9994 15.6406C15.5041 15.6406 18.8604 13.2852 21.0822 8.60234C21.2627 8.22266 21.2627 7.78203 21.0822 7.39531ZM10.9057 12.125C8.62753 12.125 6.78066 10.2781 6.78066 8C6.78066 5.72188 8.62753 3.875 10.9057 3.875C13.1838 3.875 15.0307 5.72188 15.0307 8C15.0307 10.2781 13.1838 12.125 10.9057 12.125Z" fill="white"/>
</svg>
