<svg width="35" height="35" viewBox="0 0 35 35" fill="none" xmlns="http://www.w3.org/2000/svg">
<circle cx="17.2632" cy="17.2632" r="17.2632" fill="#2EC1AC"/>
<path d="M15.2807 18C15.2807 18.6962 15.5572 19.3639 16.0495 19.8562C16.5418 20.3484 17.2095 20.625 17.9057 20.625C18.6019 20.625 19.2695 20.3484 19.7618 19.8562C20.2541 19.3639 20.5307 18.6962 20.5307 18C20.5307 17.3038 20.2541 16.6361 19.7618 16.1438C19.2695 15.6516 18.6019 15.375 17.9057 15.375C17.2095 15.375 16.5418 15.6516 16.0495 16.1438C15.5572 16.6361 15.2807 17.3038 15.2807 18V18ZM28.0822 17.3953C25.8604 12.7148 22.5018 10.3594 17.9994 10.3594C13.4947 10.3594 10.1385 12.7148 7.91659 17.3977C7.82747 17.5864 7.78125 17.7925 7.78125 18.0012C7.78125 18.2099 7.82747 18.416 7.91659 18.6047C10.1385 23.2852 13.4971 25.6406 17.9994 25.6406C22.5041 25.6406 25.8604 23.2852 28.0822 18.6023C28.2627 18.2227 28.2627 17.782 28.0822 17.3953V17.3953ZM17.9057 22.125C15.6275 22.125 13.7807 20.2781 13.7807 18C13.7807 15.7219 15.6275 13.875 17.9057 13.875C20.1838 13.875 22.0307 15.7219 22.0307 18C22.0307 20.2781 20.1838 22.125 17.9057 22.125Z" fill="white"/>
</svg>
