<svg width="12" height="15" viewBox="0 0 12 15" fill="none" xmlns="http://www.w3.org/2000/svg">
<path d="M9.17702 7.43484C9.62769 7.14266 10.0045 6.75002 10.278 6.28773C10.5514 5.82544 10.714 5.30608 10.753 4.7704C10.7603 4.26674 10.6666 3.76674 10.4772 3.29999C10.2878 2.83324 10.0067 2.40922 9.65056 2.05305C9.29439 1.69688 8.87037 1.41579 8.40362 1.22642C7.93687 1.03705 7.43686 0.943261 6.93321 0.950594H0.964844V14.3193H7.68719C8.50129 14.3021 9.28582 14.011 9.91412 13.493C10.5424 12.9751 10.9778 12.2604 11.15 11.4646C11.3222 10.6687 11.2212 9.83805 10.8632 9.10669C10.5052 8.37532 9.91117 7.78594 9.17702 7.43371V7.43484ZM3.82998 3.3384H6.69511C7.07505 3.3384 7.43943 3.48933 7.70809 3.75798C7.97675 4.02664 8.12768 4.39102 8.12768 4.77096C8.12768 5.1509 7.97675 5.51528 7.70809 5.78394C7.43943 6.0526 7.07505 6.20353 6.69511 6.20353H3.82998V3.3384ZM7.17245 11.9327H3.82998V9.06753H7.17245C7.55239 9.06753 7.91676 9.21846 8.18542 9.48712C8.45408 9.75578 8.60501 10.1202 8.60501 10.5001C8.60501 10.88 8.45408 11.2444 8.18542 11.5131C7.91676 11.7817 7.55239 11.9327 7.17245 11.9327Z" fill="#CCD5E2"/>
</svg>
