<svg width="35" height="35" viewBox="0 0 35 35" fill="none" xmlns="http://www.w3.org/2000/svg">
<circle cx="17.3139" cy="17.2632" r="17.2632" fill="#2769AD"/>
<path d="M11.8628 23.4342C11.763 23.434 11.6643 23.4131 11.5731 23.3727C11.4818 23.3324 11.3999 23.2734 11.3327 23.1997C11.2642 23.1266 11.2119 23.0399 11.1793 22.9452C11.1467 22.8505 11.1345 22.7499 11.1435 22.6502L11.3197 20.7124L19.4607 12.5742L22.0049 15.1177L13.866 23.2551L11.9282 23.4313C11.9065 23.4333 11.8846 23.4343 11.8628 23.4342ZM22.5127 14.6091L19.9693 12.0657L21.4949 10.5401C21.5617 10.4732 21.641 10.4201 21.7284 10.3839C21.8157 10.3477 21.9093 10.3291 22.0038 10.3291C22.0983 10.3291 22.1919 10.3477 22.2793 10.3839C22.3666 10.4201 22.4459 10.4732 22.5127 10.5401L24.0383 12.0657C24.1052 12.1325 24.1583 12.2118 24.1945 12.2991C24.2307 12.3865 24.2493 12.4801 24.2493 12.5746C24.2493 12.6691 24.2307 12.7627 24.1945 12.85C24.1583 12.9374 24.1052 13.0167 24.0383 13.0835L22.5134 14.6084L22.5127 14.6091Z" fill="white"/>
</svg>
