<svg width="33" height="33" viewBox="0 0 33 33" fill="none" xmlns="http://www.w3.org/2000/svg">
<g id="Overview_Ico">
<circle id="Ellipse 6" opacity="0.25" cx="16.5" cy="16.5" r="16.5" fill="#D1E1EF"/>
<g id="Category_Ico">
<path id="Vector" d="M18.0938 8H25V14.9062H18.0938V8Z" stroke="#D1E1EF" stroke-width="1.5" stroke-linecap="round" stroke-linejoin="round"/>
<path id="Vector_2" d="M8 18.0938H14.9062V25H8V18.0938Z" stroke="#D1E1EF" stroke-linecap="round" stroke-linejoin="round"/>
<path id="Vector_3" d="M18.0938 21.5469C18.0938 22.4627 18.4576 23.341 19.1051 23.9886C19.7527 24.6362 20.631 25 21.5469 25C22.4627 25 23.341 24.6362 23.9886 23.9886C24.6362 23.341 25 22.4627 25 21.5469C25 20.631 24.6362 19.7527 23.9886 19.1051C23.341 18.4576 22.4627 18.0938 21.5469 18.0938C20.631 18.0938 19.7527 18.4576 19.1051 19.1051C18.4576 19.7527 18.0938 20.631 18.0938 21.5469Z" stroke="#D1E1EF" stroke-width="1.5" stroke-linecap="round" stroke-linejoin="round"/>
<path id="Vector_4" d="M8 11.4531C8 11.9066 8.08932 12.3556 8.26285 12.7746C8.43639 13.1935 8.69074 13.5742 9.0114 13.8948C9.33205 14.2155 9.71272 14.4699 10.1317 14.6434C10.5506 14.8169 10.9996 14.9062 11.4531 14.9062C11.9066 14.9062 12.3556 14.8169 12.7746 14.6434C13.1935 14.4699 13.5742 14.2155 13.8948 13.8948C14.2155 13.5742 14.4699 13.1935 14.6434 12.7746C14.8169 12.3556 14.9062 11.9066 14.9062 11.4531C14.9062 10.9996 14.8169 10.5506 14.6434 10.1317C14.4699 9.71272 14.2155 9.33205 13.8948 9.0114C13.5742 8.69074 13.1935 8.43639 12.7746 8.26285C12.3556 8.08932 11.9066 8 11.4531 8C10.9996 8 10.5506 8.08932 10.1317 8.26285C9.71272 8.43639 9.33205 8.69074 9.0114 9.0114C8.69074 9.33205 8.43639 9.71272 8.26285 10.1317C8.08932 10.5506 8 10.9996 8 11.4531Z" stroke="#D1E1EF" stroke-width="1.5" stroke-linecap="round" stroke-linejoin="round"/>
</g>
</g>
</svg>
