<svg width="11" height="20" viewBox="0 0 11 20" fill="none" xmlns="http://www.w3.org/2000/svg">
<path d="M5.46274 19.6484C4.77298 19.6487 4.08992 19.5131 3.45261 19.2493C2.8153 18.9855 2.23622 18.5986 1.74849 18.1109C1.26076 17.6232 0.873923 17.0441 0.610101 16.4068C0.346278 15.7695 0.21064 15.0864 0.210938 14.3966L0.210938 4.36924C0.210938 3.35616 0.61338 2.38458 1.32973 1.66823C2.04608 0.951876 3.01766 0.549435 4.03074 0.549435C5.04381 0.549435 6.01539 0.951876 6.73175 1.66823C7.4481 2.38458 7.85054 3.35616 7.85054 4.36924L7.85054 12.4862C7.83694 13.1103 7.57945 13.7043 7.13324 14.1409C6.68703 14.5775 6.08758 14.8219 5.46331 14.8219C4.83903 14.8219 4.23958 14.5775 3.79337 14.1409C3.34716 13.7043 3.08967 13.1103 3.07607 12.4862L3.07607 5.3239H4.98541L4.98541 12.5723C4.98541 13.0973 5.94007 13.0973 5.94007 12.5723L5.94007 4.36924C5.94007 3.8627 5.73885 3.37691 5.38068 3.01873C5.0225 2.66056 4.53671 2.45934 4.03017 2.45934C3.52363 2.45934 3.03784 2.66056 2.67967 3.01873C2.32149 3.37691 2.12027 3.8627 2.12027 4.36924L2.12027 14.3966C2.12027 15.2837 2.47266 16.1345 3.09992 16.7617C3.72718 17.389 4.57793 17.7414 5.46501 17.7414C6.35209 17.7414 7.20283 17.389 7.83009 16.7617C8.45735 16.1345 8.80974 15.2837 8.80974 14.3966V5.32617H10.7157V14.3966C10.716 15.0865 10.5803 15.7696 10.3164 16.407C10.0525 17.0444 9.66558 17.6235 9.17772 18.1113C8.68987 18.599 8.11066 18.9858 7.47322 19.2496C6.83577 19.5134 6.15259 19.6489 5.46274 19.6484Z" fill="#CCD5E2"/>
</svg>
