<svg width="14" height="14" viewBox="0 0 14 14" fill="none" xmlns="http://www.w3.org/2000/svg">
<path d="M0.862782 13.4342C0.762986 13.434 0.664319 13.4131 0.573053 13.3727C0.481788 13.3324 0.399921 13.2734 0.332659 13.1997C0.264181 13.1266 0.211927 13.0399 0.179325 12.9452C0.146723 12.8505 0.134509 12.7499 0.143484 12.6502L0.319712 10.7124L8.46073 2.57424L11.0049 5.11768L2.86603 13.2551L0.928238 13.4313C0.906478 13.4333 0.884634 13.4343 0.862782 13.4342ZM11.5127 4.60913L8.96927 2.06569L10.4949 0.540062C10.5617 0.473184 10.641 0.42013 10.7284 0.383931C10.8157 0.347733 10.9093 0.329102 11.0038 0.329102C11.0983 0.329102 11.1919 0.347733 11.2793 0.383931C11.3666 0.42013 11.4459 0.473184 11.5127 0.540062L13.0383 2.06569C13.1052 2.1325 13.1583 2.21183 13.1945 2.29915C13.2307 2.38647 13.2493 2.48007 13.2493 2.5746C13.2493 2.66912 13.2307 2.76272 13.1945 2.85005C13.1583 2.93737 13.1052 3.0167 13.0383 3.0835L11.5134 4.60841L11.5127 4.60913Z" fill="white"/>
</svg>
