<svg width="22" height="22" viewBox="0 0 22 22" fill="none" xmlns="http://www.w3.org/2000/svg">
<path d="M9.49922 3.5002C9.49922 2.62498 9.15154 1.78561 8.53267 1.16674C7.9138 0.547873 7.07443 0.200195 6.19922 0.200195C5.32401 0.200195 4.48464 0.547873 3.86577 1.16674C3.2469 1.78561 2.89922 2.62498 2.89922 3.5002C2.89922 4.37541 3.2469 5.21478 3.86577 5.83365C4.48464 6.45252 5.32401 6.8002 6.19922 6.8002C7.07443 6.8002 7.9138 6.45252 8.53267 5.83365C9.15154 5.21478 9.49922 4.37541 9.49922 3.5002ZM4.09922 3.5002C4.09922 3.22442 4.15354 2.95134 4.25907 2.69656C4.36461 2.44178 4.51929 2.21027 4.7143 2.01527C4.9093 1.82027 5.1408 1.66558 5.39558 1.56005C5.65037 1.45451 5.92344 1.4002 6.19922 1.4002C6.475 1.4002 6.74807 1.45451 7.00285 1.56005C7.25764 1.66558 7.48914 1.82027 7.68414 2.01527C7.87915 2.21027 8.03383 2.44178 8.13937 2.69656C8.2449 2.95134 8.29922 3.22442 8.29922 3.5002C8.29922 4.05715 8.07797 4.59129 7.68414 4.98512C7.29032 5.37895 6.75617 5.6002 6.19922 5.6002C5.64226 5.6002 5.10812 5.37895 4.7143 4.98512C4.32047 4.59129 4.09922 4.05715 4.09922 3.5002ZM1.99922 8.0002H7.01882C6.82202 8.3722 6.67562 8.7754 6.58922 9.2002H1.99922C1.84009 9.2002 1.68748 9.26341 1.57495 9.37593C1.46243 9.48845 1.39922 9.64107 1.39922 9.8002V10.4002C1.39922 11.9122 2.71802 13.537 5.11442 13.9162C4.72802 14.1802 4.40642 14.5318 4.17722 14.941C1.64522 14.2558 0.199219 12.3046 0.199219 10.4002V9.8002C0.199219 9.32281 0.388861 8.86497 0.726427 8.5274C1.06399 8.18984 1.52183 8.0002 1.99922 8.0002ZM8.45402 8.0002C9.05882 7.2682 9.97442 6.8002 10.9992 6.8002C11.7179 6.79894 12.4172 7.03282 12.9905 7.46616C13.5638 7.89949 13.9796 8.50847 14.1744 9.2002C14.3481 9.81759 14.3383 10.4722 14.1463 11.0841C13.9542 11.6961 13.5882 12.2388 13.0928 12.6463C12.5975 13.0537 11.9943 13.3081 11.3568 13.3785C10.7193 13.4488 10.0751 13.3321 9.50282 13.0426C9.0622 12.8183 8.6776 12.4979 8.37743 12.1051C8.07727 11.7122 7.86921 11.2569 7.76864 10.7729C7.66808 10.2888 7.67756 9.78831 7.7964 9.3084C7.91523 8.82848 8.14039 8.3814 8.45522 8.0002H8.45402ZM9.10202 9.2002C8.98383 9.4495 8.9159 9.71964 8.90211 9.99519C8.88832 10.2707 8.92894 10.5463 9.02165 10.8062C9.11436 11.066 9.25735 11.3051 9.44244 11.5097C9.62754 11.7143 9.85112 11.8804 10.1004 11.9986C10.3497 12.1168 10.6199 12.1847 10.8954 12.1985C11.171 12.2123 11.4465 12.1717 11.7064 12.079C11.9663 11.9863 12.2053 11.8433 12.4099 11.6582C12.6145 11.4731 12.7806 11.2495 12.8988 11.0002C13.1375 10.4966 13.1664 9.91871 12.979 9.3938C12.7917 8.86888 12.4035 8.43989 11.8998 8.2012C11.3962 7.9625 10.8183 7.93366 10.2934 8.12101C9.76851 8.30835 9.33951 8.69655 9.10082 9.2002H9.10202ZM17.8212 14.941C17.5927 14.5316 17.2718 14.1811 16.884 13.9174C19.2792 13.537 20.5992 11.911 20.5992 10.4002V9.8002C20.5992 9.64107 20.536 9.48845 20.4235 9.37593C20.311 9.26341 20.1584 9.2002 19.9992 9.2002H15.4092C15.3244 8.7818 15.1802 8.37769 14.9808 8.0002H19.9992C20.4766 8.0002 20.9344 8.18984 21.272 8.5274C21.6096 8.86497 21.7992 9.32281 21.7992 9.8002V10.4002C21.7992 12.3046 20.352 14.2546 17.8212 14.941ZM16.3836 15.0454C16.0561 14.7579 15.635 14.5996 15.1992 14.6002H6.79922C6.56266 14.5996 6.32831 14.6457 6.10964 14.7359C5.89097 14.8262 5.69229 14.9587 5.52501 15.126C5.35774 15.2933 5.22518 15.4919 5.13495 15.7106C5.04471 15.9293 4.99859 16.1636 4.99922 16.4002V17.0002C4.99922 19.3654 7.23122 21.8002 10.9992 21.8002C14.7672 21.8002 16.9992 19.3654 16.9992 17.0002V16.4002C16.9992 15.8602 16.7616 15.3754 16.3836 15.0442V15.0454ZM6.19922 16.4002C6.19922 16.2411 6.26243 16.0885 6.37496 15.9759C6.48748 15.8634 6.64009 15.8002 6.79922 15.8002H15.1992C15.3584 15.8002 15.511 15.8634 15.6235 15.9759C15.736 16.0885 15.7992 16.2411 15.7992 16.4002V17.0002C15.7992 18.7258 14.0808 20.6002 10.9992 20.6002C7.91762 20.6002 6.19922 18.7258 6.19922 17.0002V16.4002ZM15.7992 0.200195C16.6744 0.200195 17.5138 0.547873 18.1327 1.16674C18.7515 1.78561 19.0992 2.62498 19.0992 3.5002C19.0992 4.37541 18.7515 5.21478 18.1327 5.83365C17.5138 6.45252 16.6744 6.8002 15.7992 6.8002C14.924 6.8002 14.0846 6.45252 13.4658 5.83365C12.8469 5.21478 12.4992 4.37541 12.4992 3.5002C12.4992 2.62498 12.8469 1.78561 13.4658 1.16674C14.0846 0.547873 14.924 0.200195 15.7992 0.200195ZM15.7992 1.4002C15.2423 1.4002 14.7081 1.62144 14.3143 2.01527C13.9205 2.4091 13.6992 2.94324 13.6992 3.5002C13.6992 4.05715 13.9205 4.59129 14.3143 4.98512C14.7081 5.37895 15.2423 5.6002 15.7992 5.6002C16.3562 5.6002 16.8903 5.37895 17.2841 4.98512C17.678 4.59129 17.8992 4.05715 17.8992 3.5002C17.8992 2.94324 17.678 2.4091 17.2841 2.01527C16.8903 1.62144 16.3562 1.4002 15.7992 1.4002Z" fill="white"/>
</svg>
