<svg width="33" height="33" viewBox="0 0 33 33" fill="none" xmlns="http://www.w3.org/2000/svg">
<g id="Profil">
<circle id="Ellipse 6" opacity="0.25" cx="16.5" cy="16.5" r="16.5" fill="#FCFEFF"/>
<g id="User_Ico">
<path id="Vector" d="M8 16.5C8 17.6162 8.21986 18.7215 8.64702 19.7528C9.07419 20.7841 9.70029 21.7211 10.4896 22.5104C11.2789 23.2997 12.2159 23.9258 13.2472 24.353C14.2785 24.7801 15.3838 25 16.5 25C17.6162 25 18.7215 24.7801 19.7528 24.353C20.7841 23.9258 21.7211 23.2997 22.5104 22.5104C23.2997 21.7211 23.9258 20.7841 24.353 19.7528C24.7801 18.7215 25 17.6162 25 16.5C25 15.3838 24.7801 14.2785 24.353 13.2472C23.9258 12.2159 23.2997 11.2789 22.5104 10.4896C21.7211 9.70029 20.7841 9.07419 19.7528 8.64702C18.7215 8.21986 17.6162 8 16.5 8C15.3838 8 14.2785 8.21986 13.2472 8.64702C12.2159 9.07419 11.2789 9.70029 10.4896 10.4896C9.70029 11.2789 9.07419 12.2159 8.64702 13.2472C8.21986 14.2785 8 15.3838 8 16.5Z" stroke="#FCFEFF" stroke-width="1.5" stroke-linecap="round" stroke-linejoin="round"/>
<path id="Vector_2" d="M13.6665 14.6111C13.6665 15.3626 13.965 16.0833 14.4964 16.6146C15.0277 17.146 15.7484 17.4445 16.4998 17.4445C17.2513 17.4445 17.972 17.146 18.5033 16.6146C19.0347 16.0833 19.3332 15.3626 19.3332 14.6111C19.3332 13.8597 19.0347 13.139 18.5033 12.6077C17.972 12.0763 17.2513 11.7778 16.4998 11.7778C15.7484 11.7778 15.0277 12.0763 14.4964 12.6077C13.965 13.139 13.6665 13.8597 13.6665 14.6111Z" stroke="#FCFEFF" stroke-width="1.5" stroke-linecap="round" stroke-linejoin="round"/>
<path id="Vector_3" d="M10.9922 22.9685C11.2259 22.1905 11.7043 21.5086 12.3562 21.0239C13.0081 20.5392 13.7989 20.2776 14.6113 20.2778H18.3891C19.2025 20.2775 19.9943 20.5398 20.6467 21.0256C21.2991 21.5114 21.7772 22.1948 22.0101 22.9742" stroke="#FCFEFF" stroke-width="1.5" stroke-linecap="round" stroke-linejoin="round"/>
</g>
</g>
</svg>
