<svg width="33" height="33" viewBox="0 0 33 33" fill="none" xmlns="http://www.w3.org/2000/svg">
<g id="Group 16">
<circle id="Ellipse 6" opacity="0.25" cx="16.5" cy="16.5" r="16.5" fill="#FCFEFF"/>
<g id="Project_Ico">
<path id="Vector" d="M21.2222 21V23C21.2222 23.5304 21.0232 24.0392 20.669 24.4142C20.3148 24.7893 19.8343 25 19.3333 25H9.88889C9.38793 25 8.90748 24.7893 8.55324 24.4142C8.19901 24.0392 8 23.5304 8 23V14C8 13.4696 8.19901 12.9609 8.55324 12.5858C8.90748 12.2107 9.38793 12 9.88889 12H11.7778" stroke="#FCFEFF" stroke-linecap="round" stroke-linejoin="round"/>
<path id="Vector_2" d="M13.6667 8H16.5001L18.3889 10H23.1112C23.6121 10 24.0926 10.2107 24.4468 10.5858C24.8011 10.9609 25.0001 11.4696 25.0001 12V19C25.0001 19.5304 24.8011 20.0391 24.4468 20.4142C24.0926 20.7893 23.6121 21 23.1112 21H13.6667C13.1658 21 12.6853 20.7893 12.3311 20.4142C11.9768 20.0391 11.7778 19.5304 11.7778 19V10C11.7778 9.46957 11.9768 8.96086 12.3311 8.58579C12.6853 8.21071 13.1658 8 13.6667 8Z" fill="#414C56" stroke="#FCFEFF" stroke-width="1.5" stroke-linecap="round" stroke-linejoin="round"/>
</g>
</g>
</svg>
