<svg width="15" height="16" viewBox="0 0 15 16" fill="none" xmlns="http://www.w3.org/2000/svg">
<path d="M14.2327 4.11869C14.2326 4.29572 14.1677 4.46658 14.05 4.59888C13.9324 4.73117 13.7703 4.81569 13.5945 4.8364L13.5099 4.84146H12.8992L12.0094 13.8906C11.961 14.3816 11.7316 14.837 11.366 15.1683C11.0004 15.4996 10.5246 15.6831 10.0312 15.683H4.70147C4.20807 15.6831 3.73229 15.4996 3.36666 15.1683C3.00103 14.837 2.77169 14.3816 2.72325 13.8906L1.83351 4.84146H1.22277C1.03108 4.84146 0.847241 4.76531 0.711695 4.62976C0.576149 4.49422 0.5 4.31038 0.5 4.11869C0.5 3.927 0.576149 3.74316 0.711695 3.60761C0.847241 3.47206 1.03108 3.39591 1.22277 3.39591H4.83663C4.83663 3.06371 4.90207 2.73476 5.0292 2.42784C5.15632 2.12092 5.34266 1.84205 5.57757 1.60714C5.81247 1.37224 6.09134 1.1859 6.39826 1.05877C6.70518 0.931644 7.03413 0.866211 7.36634 0.866211C7.69854 0.866211 8.02749 0.931644 8.33441 1.05877C8.64133 1.1859 8.9202 1.37224 9.15511 1.60714C9.39001 1.84205 9.57635 2.12092 9.70348 2.42784C9.83061 2.73476 9.89604 3.06371 9.89604 3.39591H13.5099C13.7016 3.39591 13.8854 3.47206 14.021 3.60761C14.1565 3.74316 14.2327 3.927 14.2327 4.11869ZM8.99257 6.4677C8.86158 6.4677 8.73502 6.51514 8.6363 6.60124C8.53757 6.68734 8.47337 6.80628 8.45555 6.93605L8.45049 7.00978V12.0692L8.45555 12.1429C8.47341 12.2726 8.53763 12.3915 8.63635 12.4776C8.73507 12.5637 8.86161 12.6111 8.99257 12.6111C9.12354 12.6111 9.25008 12.5637 9.3488 12.4776C9.44752 12.3915 9.51174 12.2726 9.52959 12.1429L9.53465 12.0692V7.00978L9.52959 6.93605C9.51178 6.80628 9.44757 6.68734 9.34885 6.60124C9.25013 6.51514 9.12357 6.4677 8.99257 6.4677ZM5.7401 6.4677C5.60911 6.4677 5.48254 6.51514 5.38382 6.60124C5.2851 6.68734 5.22089 6.80628 5.20308 6.93605L5.19802 7.00978V12.0692L5.20308 12.1429C5.22093 12.2726 5.28515 12.3915 5.38387 12.4776C5.48259 12.5637 5.60913 12.6111 5.7401 12.6111C5.87107 12.6111 5.99761 12.5637 6.09633 12.4776C6.19504 12.3915 6.25927 12.2726 6.27712 12.1429L6.28218 12.0692V7.00978L6.27712 6.93605C6.2593 6.80628 6.1951 6.68734 6.09637 6.60124C5.99765 6.51514 5.87109 6.4677 5.7401 6.4677ZM7.36634 2.31176C7.0788 2.31176 6.80304 2.42598 6.59972 2.6293C6.3964 2.83262 6.28218 3.10838 6.28218 3.39591H8.45049C8.45049 3.10838 8.33627 2.83262 8.13295 2.6293C7.92963 2.42598 7.65387 2.31176 7.36634 2.31176Z" fill="#D31019"/>
</svg>
