<svg width="33" height="33" viewBox="0 0 33 33" fill="none" xmlns="http://www.w3.org/2000/svg">
<g id="Group 18">
<circle id="Ellipse 7" opacity="0.25" cx="16.5" cy="16.5" r="16.5" fill="#FCFEFF"/>
<g id="Setting_Ico">
<path id="Vector" d="M14.9181 9.24383C15.3204 7.58539 17.6796 7.58539 18.0819 9.24383C18.1423 9.49298 18.2607 9.72435 18.4273 9.91911C18.594 10.1139 18.8043 10.2665 19.0412 10.3646C19.278 10.4628 19.5347 10.5036 19.7902 10.4838C20.0458 10.4639 20.2931 10.3841 20.512 10.2506C21.9693 9.36283 23.6381 11.0307 22.7503 12.4889C22.6171 12.7077 22.5373 12.9549 22.5175 13.2103C22.4978 13.4657 22.5385 13.7222 22.6366 13.9589C22.7346 14.1955 22.887 14.4058 23.0816 14.5724C23.2761 14.7391 23.5072 14.8575 23.7562 14.9181C25.4146 15.3204 25.4146 17.6796 23.7562 18.0819C23.507 18.1423 23.2757 18.2607 23.0809 18.4273C22.8861 18.594 22.7335 18.8043 22.6354 19.0412C22.5372 19.278 22.4964 19.5347 22.5162 19.7902C22.5361 20.0458 22.6159 20.2931 22.7494 20.512C23.6372 21.9693 21.9693 23.6381 20.5111 22.7503C20.2923 22.6171 20.0451 22.5373 19.7897 22.5175C19.5343 22.4978 19.2778 22.5385 19.0411 22.6366C18.8045 22.7346 18.5942 22.887 18.4276 23.0816C18.2609 23.2761 18.1425 23.5072 18.0819 23.7562C17.6796 25.4146 15.3204 25.4146 14.9181 23.7562C14.8577 23.507 14.7393 23.2757 14.5727 23.0809C14.406 22.8861 14.1957 22.7335 13.9588 22.6354C13.722 22.5372 13.4653 22.4964 13.2098 22.5162C12.9542 22.5361 12.7069 22.6159 12.488 22.7494C11.0307 23.6372 9.36189 21.9693 10.2497 20.5111C10.3829 20.2923 10.4627 20.0451 10.4825 19.7897C10.5022 19.5343 10.4615 19.2778 10.3634 19.0411C10.2654 18.8045 10.113 18.5942 9.91842 18.4276C9.72388 18.2609 9.49275 18.1425 9.24383 18.0819C7.58539 17.6796 7.58539 15.3204 9.24383 14.9181C9.49298 14.8577 9.72435 14.7393 9.91911 14.5727C10.1139 14.406 10.2665 14.1957 10.3646 13.9588C10.4628 13.722 10.5036 13.4653 10.4838 13.2098C10.4639 12.9542 10.3841 12.7069 10.2506 12.488C9.36283 11.0307 11.0307 9.36189 12.4889 10.2497C13.4334 10.8239 14.6574 10.3158 14.9181 9.24383Z" stroke="#FAFEFF" stroke-width="1.5" stroke-linecap="round" stroke-linejoin="round"/>
<path id="Vector_2" d="M13.6665 16.5C13.6665 17.2514 13.965 17.9721 14.4964 18.5034C15.0277 19.0348 15.7484 19.3333 16.4998 19.3333C17.2513 19.3333 17.972 19.0348 18.5033 18.5034C19.0347 17.9721 19.3332 17.2514 19.3332 16.5C19.3332 15.7485 19.0347 15.0278 18.5033 14.4965C17.972 13.9651 17.2513 13.6666 16.4998 13.6666C15.7484 13.6666 15.0277 13.9651 14.4964 14.4965C13.965 15.0278 13.6665 15.7485 13.6665 16.5Z" stroke="#FAFEFF" stroke-linecap="round" stroke-linejoin="round"/>
</g>
</g>
</svg>
