<svg width="14" height="18" viewBox="0 0 14 18" fill="none" xmlns="http://www.w3.org/2000/svg">
<path d="M6.93947 14.0523C8.45856 14.0511 9.91509 13.4471 10.9893 12.373C12.0634 11.2988 12.6674 9.84229 12.6686 8.3232V0.683594H10.2774V8.3232C10.2774 9.21027 9.92501 10.061 9.29775 10.6883C8.67049 11.3155 7.81975 11.6679 6.93267 11.6679C6.04559 11.6679 5.19484 11.3155 4.56758 10.6883C3.94032 10.061 3.58793 9.21027 3.58793 8.3232V0.683594H1.20467V8.3232C1.20587 9.84327 1.81064 11.3007 2.88602 12.375C3.96141 13.4493 5.41939 14.0526 6.93947 14.0523ZM0.25 15.9628V17.8721H13.6187V15.9628H0.25Z" fill="#CCD5E2"/>
</svg>
