<svg width="82" height="65" viewBox="0 0 82 65" fill="none" xmlns="http://www.w3.org/2000/svg">
<path id="&#226;&#128;&#156;" d="M35.1702 0L22.5548 45.8823L18.3497 28.6765C23.8291 28.6765 28.289 30.2696 31.7296 33.4559C35.1702 36.6422 36.8904 41.0392 36.8904 46.6471C36.8904 52.1274 35.1065 56.5882 31.5385 60.0294C28.0979 63.3431 23.7653 65 18.5408 65C13.1888 65 8.72883 63.3431 5.16084 60.0294C1.72028 56.5882 0 52.1274 0 46.6471C0 44.9902 0.127428 43.3971 0.382284 41.8676C0.637141 40.2108 1.14685 38.299 1.91142 36.1324C2.67599 33.9657 3.75913 31.098 5.16084 27.5294L16.2471 0H35.1702ZM80.2797 0L67.6643 45.8823L63.4592 28.6765C68.9386 28.6765 73.3986 30.2696 76.8392 33.4559C80.2797 36.6422 82 41.0392 82 46.6471C82 52.1274 80.216 56.5882 76.648 60.0294C73.2075 63.3431 68.8749 65 63.6504 65C58.2984 65 53.8384 63.3431 50.2704 60.0294C46.8298 56.5882 45.1096 52.1274 45.1096 46.6471C45.1096 44.9902 45.237 43.3971 45.4918 41.8676C45.7467 40.2108 46.2564 38.299 47.021 36.1324C47.7855 33.9657 48.8687 31.098 50.2704 27.5294L61.3566 0H80.2797Z" fill="#C8FFE8"/>
</svg>
