<svg width="28" height="28" viewBox="0 0 28 28" fill="none" xmlns="http://www.w3.org/2000/svg">
<path d="M1.75 14C1.75 15.6087 2.06686 17.2016 2.68248 18.6879C3.2981 20.1741 4.20042 21.5245 5.33794 22.6621C6.47546 23.7996 7.82589 24.7019 9.31213 25.3175C10.7984 25.9331 12.3913 26.25 14 26.25C15.6087 26.25 17.2016 25.9331 18.6879 25.3175C20.1741 24.7019 21.5245 23.7996 22.6621 22.6621C23.7996 21.5245 24.7019 20.1741 25.3175 18.6879C25.9331 17.2016 26.25 15.6087 26.25 14C26.25 12.3913 25.9331 10.7984 25.3175 9.31213C24.7019 7.82589 23.7996 6.47546 22.6621 5.33794C21.5245 4.20042 20.1741 3.2981 18.6879 2.68248C17.2016 2.06686 15.6087 1.75 14 1.75C12.3913 1.75 10.7984 2.06686 9.31213 2.68248C7.82589 3.2981 6.47546 4.20042 5.33794 5.33794C4.20042 6.47546 3.2981 7.82589 2.68248 9.31213C2.06686 10.7984 1.75 12.3913 1.75 14Z" stroke="#F7FFF8" stroke-width="2" stroke-linecap="round" stroke-linejoin="round"/>
<path d="M9.9165 11.2778C9.9165 12.3607 10.3467 13.3994 11.1125 14.1651C11.8783 14.9309 12.9169 15.3611 13.9998 15.3611C15.0828 15.3611 16.1214 14.9309 16.8872 14.1651C17.653 13.3994 18.0832 12.3607 18.0832 11.2778C18.0832 10.1948 17.653 9.1562 16.8872 8.39042C16.1214 7.62465 15.0828 7.19444 13.9998 7.19444C12.9169 7.19444 11.8783 7.62465 11.1125 8.39042C10.3467 9.1562 9.9165 10.1948 9.9165 11.2778Z" stroke="#F7FFF8" stroke-width="2" stroke-linecap="round" stroke-linejoin="round"/>
<path d="M6.06152 23.3222C6.39841 22.201 7.08776 21.2182 8.0273 20.5197C8.96685 19.8212 10.1065 19.4441 11.2773 19.4444H16.7217C17.894 19.444 19.0351 19.822 19.9753 20.5221C20.9156 21.2223 21.6047 22.2072 21.9402 23.3304" stroke="#F7FFF8" stroke-width="2" stroke-linecap="round" stroke-linejoin="round"/>
</svg>
